<svg xmlns="http://www.w3.org/2000/svg" xmlns:xlink="http://www.w3.org/1999/xlink" width="500" zoomAndPan="magnify" viewBox="0 0 375 374.999991" height="500" preserveAspectRatio="xMidYMid meet" version="1.0"><defs><clipPath id="20fa701f1f"><path d="M 15.339844 0 L 359.589844 0 L 359.589844 374.960938 L 15.339844 374.960938 Z M 15.339844 0 " clip-rule="nonzero"/></clipPath></defs><g clip-path="url(#20fa701f1f)"><path fill="#9ca2a7" d="M 187.429688 0.0078125 C 234.59375 0.0078125 278.007812 19.425781 309.425781 50.171875 C 340.09375 81.585938 359.589844 124.253906 359.589844 172.167969 C 359.589844 219.332031 340.171875 261.996094 309.425781 293.414062 L 308.675781 294.164062 L 307.925781 294.164062 L 307.175781 294.914062 L 307.175781 295.664062 L 306.425781 295.664062 L 306.425781 296.414062 L 305.675781 296.414062 L 305.675781 297.160156 L 304.929688 297.160156 L 304.929688 297.910156 L 303.429688 299.410156 L 302.679688 299.410156 L 302.679688 300.160156 L 301.929688 300.160156 L 299.679688 302.410156 L 298.929688 302.410156 L 298.929688 303.160156 L 298.179688 303.160156 L 298.179688 303.910156 L 297.429688 303.910156 L 297.429688 304.660156 L 296.679688 304.660156 L 294.429688 306.910156 L 293.679688 306.910156 L 292.929688 307.660156 C 292.179688 308.410156 291.429688 309.160156 291.429688 309.160156 L 290.679688 309.910156 L 289.929688 309.910156 C 288.429688 311.410156 287.679688 312.160156 286.183594 312.910156 L 285.433594 313.65625 L 284.683594 313.65625 L 283.183594 315.15625 C 271.933594 322.65625 259.261719 328.65625 245.765625 333.902344 L 245.015625 333.902344 L 244.265625 334.652344 L 242.765625 334.652344 L 242.015625 335.402344 L 240.515625 335.402344 L 240.515625 336.152344 L 238.265625 336.152344 L 237.515625 336.902344 L 235.269531 336.902344 L 235.269531 337.652344 L 233.769531 337.652344 L 232.269531 338.402344 L 230.769531 338.402344 C 230.769531 338.402344 230.019531 338.402344 229.269531 339.152344 C 229.269531 339.152344 228.519531 339.152344 227.769531 339.152344 L 227.769531 200.585938 C 227.769531 193.085938 233.769531 186.339844 241.265625 186.339844 C 248.765625 186.339844 255.511719 193.085938 255.511719 200.585938 L 255.511719 299.335938 C 265.261719 294.085938 274.257812 288.089844 282.433594 280.589844 L 282.433594 161.667969 C 282.433594 154.171875 288.429688 148.171875 295.929688 148.171875 C 303.429688 148.171875 309.425781 154.171875 309.425781 161.667969 L 309.425781 249.25 C 323.671875 226.828125 331.847656 200.585938 331.847656 172.167969 C 331.847656 131.75 315.351562 95.835938 289.179688 69.664062 C 263.011719 43.496094 227.09375 27.75 187.429688 27.75 C 147.761719 27.75 111.84375 43.496094 85.675781 69.664062 C 59.507812 95.835938 43.011719 131.75 43.011719 172.167969 C 43.011719 200.585938 51.257812 226.828125 65.429688 249.25 L 65.429688 161.667969 C 65.429688 154.171875 71.429688 148.171875 78.925781 148.171875 C 86.425781 148.171875 92.425781 154.171875 92.425781 161.667969 L 92.425781 280.664062 C 100.671875 288.164062 109.671875 294.164062 119.34375 299.410156 L 119.34375 200.585938 C 119.34375 193.085938 126.089844 186.339844 133.589844 186.339844 C 141.089844 186.339844 147.085938 193.085938 147.085938 200.585938 L 147.085938 310.582031 C 155.335938 312.832031 164.332031 315.082031 174.007812 315.832031 L 174.007812 126.425781 C 174.007812 118.929688 180.003906 112.929688 187.503906 112.929688 C 195 112.929688 201 118.929688 201 126.425781 L 201 361.421875 C 201 368.921875 195 374.917969 187.503906 374.917969 C 180.003906 374.917969 174.007812 368.921875 174.007812 361.421875 L 174.007812 343.425781 C 165.007812 342.675781 155.261719 341.175781 147.085938 338.925781 C 146.335938 338.925781 145.585938 338.925781 144.835938 338.925781 C 144.835938 338.175781 144.085938 338.175781 143.339844 338.175781 C 142.589844 338.175781 141.839844 337.425781 141.839844 337.425781 L 141.089844 337.425781 C 141.089844 337.425781 140.339844 337.425781 139.589844 337.425781 L 139.589844 336.679688 C 138.839844 336.679688 138.089844 336.679688 138.089844 336.679688 L 137.339844 336.679688 C 137.339844 335.929688 136.589844 335.929688 135.839844 335.929688 C 135.089844 335.929688 135.089844 335.929688 134.339844 335.179688 L 132.839844 335.179688 L 132.089844 334.429688 L 130.589844 334.429688 L 129.839844 333.679688 L 129.089844 333.679688 L 128.339844 332.929688 L 127.589844 332.929688 C 126.839844 332.929688 126.839844 332.929688 126.089844 332.929688 L 126.089844 332.179688 C 125.34375 332.179688 125.34375 332.179688 124.59375 332.179688 L 123.84375 331.429688 C 123.09375 331.429688 123.09375 331.429688 122.34375 331.429688 L 122.34375 330.679688 C 121.59375 330.679688 121.59375 330.679688 120.84375 330.679688 L 120.84375 329.929688 C 110.34375 326.179688 101.421875 320.929688 92.425781 314.933594 C 92.425781 314.933594 91.675781 314.933594 90.925781 314.183594 C 87.175781 311.933594 83.425781 308.933594 80.425781 306.683594 L 77.425781 303.683594 L 76.675781 303.683594 L 76.675781 302.9375 L 75.925781 302.9375 L 75.925781 302.1875 L 75.179688 302.1875 L 73.679688 300.6875 L 72.929688 300.6875 L 72.929688 299.9375 L 72.179688 299.9375 L 72.179688 299.1875 L 71.429688 299.1875 L 71.429688 298.4375 L 70.679688 298.4375 L 70.679688 297.6875 L 69.929688 297.6875 L 69.929688 296.9375 L 69.179688 296.9375 L 69.179688 296.1875 L 68.429688 296.1875 L 68.429688 295.4375 L 67.679688 295.4375 L 67.679688 294.6875 L 66.929688 294.6875 L 66.929688 293.9375 L 66.179688 293.9375 L 65.429688 293.1875 C 34.761719 261.921875 15.339844 219.253906 15.339844 172.089844 C 15.339844 124.179688 34.761719 81.511719 65.503906 50.09375 C 96.921875 19.425781 140.339844 0.0078125 187.429688 0.0078125 Z M 296.003906 111.503906 C 303.503906 111.503906 309.5 117.503906 309.5 125.003906 C 309.5 132.5 303.503906 138.5 296.003906 138.5 C 288.507812 138.5 282.507812 132.5 282.507812 125.003906 C 282.507812 117.503906 288.507812 111.503906 296.003906 111.503906 Z M 78.925781 111.503906 C 86.425781 111.503906 92.425781 117.503906 92.425781 125.003906 C 92.425781 132.5 86.425781 138.5 78.925781 138.5 C 71.429688 138.5 65.429688 132.5 65.429688 125.003906 C 65.429688 117.503906 71.503906 111.503906 78.925781 111.503906 Z M 133.589844 149.671875 C 141.089844 149.671875 147.085938 155.671875 147.085938 163.167969 C 147.085938 170.667969 141.089844 176.664062 133.589844 176.664062 C 126.089844 176.664062 119.34375 170.667969 119.34375 163.167969 C 119.34375 155.671875 126.089844 149.671875 133.589844 149.671875 Z M 187.429688 75.589844 C 194.925781 75.589844 200.925781 81.585938 200.925781 89.085938 C 200.925781 96.585938 194.925781 102.582031 187.429688 102.582031 C 179.929688 102.582031 173.929688 96.585938 173.929688 89.085938 C 173.929688 81.585938 180.003906 75.589844 187.429688 75.589844 Z M 241.339844 149.671875 C 248.839844 149.671875 255.589844 155.671875 255.589844 163.167969 C 255.589844 170.667969 248.839844 176.664062 241.339844 176.664062 C 233.84375 176.664062 227.84375 170.667969 227.84375 163.167969 C 227.84375 155.671875 233.84375 149.671875 241.339844 149.671875 Z M 241.339844 149.671875 " fill-opacity="1" fill-rule="nonzero"/></g></svg>